<?xml version="1.0" encoding="iso-8859-1"?>
<!-- Generator: Adobe Illustrator 19.0.0, SVG Export Plug-In . SVG Version: 6.00 Build 0)  -->
<svg version="1.1" id="Capa_1" xmlns="http://www.w3.org/2000/svg" xmlns:xlink="http://www.w3.org/1999/xlink" x="0px" y="0px"
	 viewBox="0 0 404.32 404.32" style="enable-background:new 0 0 404.32 404.32;" xml:space="preserve">
<circle style="fill:#047BAF;" cx="129.12" cy="85.76" r="85.76"/>
<g>
	<path style="fill:#047BAF;" d="M214.8,89.56h94.6c28.424,0.088,51.45,23.096,51.56,51.52v211.68
		c-0.088,28.439-23.121,51.472-51.56,51.56H143.72c-11.39-0.022-20.618-9.25-20.64-20.64V171.32c2,0,4,0.2,6.04,0.2
		C175.008,171.522,212.767,135.403,214.8,89.56L214.8,89.56z"/>
	<path style="fill:#FFFFFF;" d="M214.8,89.56h94.6c12.014,0.029,23.637,4.276,32.84,12c2.587,6.143,3.946,12.734,4,19.4v211.56
		c-0.088,28.439-23.121,51.472-51.56,51.56H128.8c-1.935,0.005-3.861-0.264-5.72-0.8v-212c2,0,4,0.2,6.04,0.2
		C174.993,171.483,212.746,135.387,214.8,89.56z"/>
	<path style="fill:#1FC3F3;" d="M214.8,89.56h98.16c9.939,0.022,17.996,8.062,18.04,18v218.6c0.92,26.28-12,38.84-36.36,39.64
		H141.12c-9.954,0.022-18.018,8.086-18.04,18.04V171.32c2,0,4,0.2,6.04,0.2C175.008,171.522,212.767,135.403,214.8,89.56
		L214.8,89.56z"/>
	<path style="fill:#FFFFFF;" d="M177.8,156.36h98.96c5.7,0,10.32,4.62,10.32,10.32v13.92c0,5.7-4.62,10.32-10.32,10.32h-99.4
		c-5.7,0-10.32-4.62-10.32-10.32l0,0v-13.92c-0.005-1.567,0.351-3.113,1.04-4.52C171.444,160.443,174.691,158.505,177.8,156.36
		L177.8,156.36z"/>
	<path style="fill:#047BAF;" d="M267.84,89.56h37.76v43.36l-18.88-21.68l-18.88,21.68V89.56z"/>
</g>
<circle style="fill:#FFFFFF;" cx="129.12" cy="85.76" r="67.28"/>
<path style="fill:#047BAF;" d="M102.68,90.36c-2.574,0-4.66-2.086-4.66-4.66c0-2.574,2.086-4.66,4.66-4.66h52.88
	c2.574,0,4.66,2.086,4.66,4.66s-2.086,4.66-4.66,4.66L102.68,90.36z"/>
<g>
</g>
<g>
</g>
<g>
</g>
<g>
</g>
<g>
</g>
<g>
</g>
<g>
</g>
<g>
</g>
<g>
</g>
<g>
</g>
<g>
</g>
<g>
</g>
<g>
</g>
<g>
</g>
<g>
</g>
</svg>
