<svg id="Layer_1" height="512" viewBox="0 0 512 512" width="512" xmlns="http://www.w3.org/2000/svg" data-name="Layer 1"><path d="m140.528 320.946c-.032-.055-.076-.1-.11-.153a40.44 40.44 0 0 0 -14.431-14.431c-.054-.034-.1-.079-.154-.112s-.12-.049-.179-.08a40 40 0 0 0 -39.794 0c-.058.03-.121.047-.178.08s-.1.078-.156.112a40.432 40.432 0 0 0 -14.426 14.428c-.034.055-.079.1-.113.156s-.049.121-.081.18a40 40 0 0 0 0 39.79c.032.059.048.122.081.18.049.084.107.157.16.237a40.447 40.447 0 0 0 14.381 14.348c.055.034.1.079.156.111.087.051.177.087.267.132a40.006 40.006 0 0 0 39.616 0c.089-.045.18-.081.268-.132.056-.032.1-.077.154-.111a40.438 40.438 0 0 0 14.386-14.354c.051-.077.108-.149.155-.231.033-.057.049-.118.079-.176a40.006 40.006 0 0 0 0-39.8c-.032-.055-.048-.12-.081-.174zm-4.994 24.8a29.8 29.8 0 0 1 -1.632 6.063 4.968 4.968 0 0 0 -4.734 8.179 30.317 30.317 0 0 1 -4.441 4.441 4.967 4.967 0 0 0 -8.178 4.734 29.871 29.871 0 0 1 -6.064 1.631 4.967 4.967 0 0 0 -9.457 0 29.835 29.835 0 0 1 -6.062-1.631 4.968 4.968 0 0 0 -8.18-4.734 30.408 30.408 0 0 1 -4.44-4.441 4.968 4.968 0 0 0 -4.735-8.179 29.8 29.8 0 0 1 -1.63-6.063 4.968 4.968 0 0 0 0-9.457 29.821 29.821 0 0 1 1.625-6.051 4.978 4.978 0 0 0 4.74-8.191 30.427 30.427 0 0 1 4.429-4.433 4.978 4.978 0 0 0 8.191-4.743 29.9 29.9 0 0 1 6.062-1.631 4.967 4.967 0 0 0 9.457 0 29.936 29.936 0 0 1 6.064 1.631 4.977 4.977 0 0 0 8.189 4.743 30.377 30.377 0 0 1 4.43 4.432 4.967 4.967 0 0 0 4.74 8.192 29.962 29.962 0 0 1 1.626 6.05 4.968 4.968 0 0 0 0 9.458z"/><path d="m105.757 319.4a21.621 21.621 0 1 0 21.62 21.62 21.644 21.644 0 0 0 -21.62-21.62z"/><path d="m37.497 290.424h-14.833l-.994 17.824h15.827z"/><path d="m16.306 344.8a3 3 0 0 0 2.994 3h26.616v-29.552h-29.61z"/><path d="m207 130.828c-9.9.889-35.522 6.331-69.186 36.813h69.186z"/><path d="m362.93 259.08h79.939v12.998h-79.939z"/><path d="m152.758 217.422v-20.007h-34.658l-19.745 38.1 43.662-5.823a12.418 12.418 0 0 0 10.741-12.27z"/><path d="m162.758 192.415v25.007a22.448 22.448 0 0 1 -16.678 21.618l14.387 9.305a34.987 34.987 0 0 1 15.978 28.4l.74 26.039h36.815v-125.143h-85.654l-5.065 9.774h34.477a5 5 0 0 1 5 5z"/><path d="m165.611 312.78h71.391v36.8h-71.391z"/><path d="m166.449 277.025a24.988 24.988 0 0 0 -11.413-20.283l-23.967-15.5-40.627 5.418-49.1 12.425a23.992 23.992 0 0 0 -18.093 21.34h19.251a5 5 0 0 1 5 5v22.824h3.419a4.97 4.97 0 0 1 3.752 1.726 59.717 59.717 0 0 1 101.448-1.138 9.01 9.01 0 0 1 8.495-6.056h2.57z"/><path d="m390.528 320.946c-.032-.055-.076-.1-.11-.153a40.44 40.44 0 0 0 -14.431-14.431c-.054-.034-.1-.079-.154-.112s-.12-.049-.179-.08a40 40 0 0 0 -39.794 0c-.058.03-.121.047-.178.08s-.1.078-.156.112a40.432 40.432 0 0 0 -14.426 14.428c-.034.055-.079.1-.113.156s-.05.121-.081.18a40 40 0 0 0 0 39.79c.031.059.048.122.081.18.049.084.107.157.16.237a40.447 40.447 0 0 0 14.381 14.348c.055.034.1.079.156.111.087.051.177.087.267.132a40.006 40.006 0 0 0 39.616 0c.089-.045.18-.081.268-.132.056-.032.1-.077.154-.111a40.438 40.438 0 0 0 14.386-14.354c.051-.077.108-.149.155-.231.032-.057.049-.118.079-.176a40.006 40.006 0 0 0 0-39.8c-.032-.055-.049-.12-.081-.174zm-4.994 24.8a29.863 29.863 0 0 1 -1.632 6.063 4.968 4.968 0 0 0 -4.734 8.179 30.359 30.359 0 0 1 -4.44 4.441 4.968 4.968 0 0 0 -8.179 4.734 29.871 29.871 0 0 1 -6.064 1.631 4.967 4.967 0 0 0 -9.457 0 29.835 29.835 0 0 1 -6.062-1.631 4.968 4.968 0 0 0 -8.18-4.734 30.408 30.408 0 0 1 -4.44-4.441 4.968 4.968 0 0 0 -4.735-8.179 29.8 29.8 0 0 1 -1.63-6.063 4.968 4.968 0 0 0 0-9.457 29.821 29.821 0 0 1 1.625-6.051 4.978 4.978 0 0 0 4.74-8.191 30.427 30.427 0 0 1 4.429-4.433 4.978 4.978 0 0 0 8.191-4.743 29.9 29.9 0 0 1 6.062-1.631 4.967 4.967 0 0 0 9.457 0 29.936 29.936 0 0 1 6.064 1.631 4.977 4.977 0 0 0 8.189 4.743 30.377 30.377 0 0 1 4.43 4.432 4.967 4.967 0 0 0 4.74 8.192 29.962 29.962 0 0 1 1.626 6.05 4.968 4.968 0 0 0 0 9.458z"/><path d="m355.757 319.4a21.621 21.621 0 1 0 21.62 21.62 21.644 21.644 0 0 0 -21.62-21.62z"/><path d="m482.641 320.946c-.033-.055-.076-.1-.111-.153a40.437 40.437 0 0 0 -14.43-14.431c-.055-.034-.1-.079-.155-.112s-.12-.049-.178-.08a40 40 0 0 0 -39.794 0c-.059.03-.121.047-.179.08s-.1.078-.155.112a40.434 40.434 0 0 0 -14.429 14.428c-.034.055-.079.1-.112.156s-.05.121-.081.18a40 40 0 0 0 0 39.79c.031.059.048.122.081.18.049.084.106.157.159.237a40.442 40.442 0 0 0 14.382 14.348c.054.034.1.079.155.111.087.051.178.087.267.132a40.007 40.007 0 0 0 39.617 0c.089-.045.179-.081.267-.132.056-.032.1-.077.155-.111a40.443 40.443 0 0 0 14.385-14.354c.051-.077.109-.149.156-.231.032-.057.049-.118.079-.176a40.006 40.006 0 0 0 0-39.8c-.03-.055-.047-.12-.079-.174zm-4.994 24.8a29.863 29.863 0 0 1 -1.632 6.063 4.968 4.968 0 0 0 -4.735 8.179 30.31 30.31 0 0 1 -4.44 4.441 4.968 4.968 0 0 0 -8.179 4.734 29.861 29.861 0 0 1 -6.061 1.637 4.967 4.967 0 0 0 -9.457 0 29.844 29.844 0 0 1 -6.063-1.631 4.968 4.968 0 0 0 -8.18-4.734 30.458 30.458 0 0 1 -4.44-4.441 4.968 4.968 0 0 0 -4.734-8.179 29.861 29.861 0 0 1 -1.631-6.063 4.968 4.968 0 0 0 0-9.457 29.888 29.888 0 0 1 1.626-6.051 4.977 4.977 0 0 0 4.739-8.191 30.433 30.433 0 0 1 4.43-4.433 4.978 4.978 0 0 0 8.19-4.743 29.909 29.909 0 0 1 6.063-1.631 4.967 4.967 0 0 0 9.457 0 29.927 29.927 0 0 1 6.063 1.631 4.978 4.978 0 0 0 8.19 4.743 30.37 30.37 0 0 1 4.429 4.432 4.967 4.967 0 0 0 4.741 8.192 29.962 29.962 0 0 1 1.626 6.05 4.967 4.967 0 0 0 0 9.458z"/><path d="m447.869 319.4a21.621 21.621 0 1 0 21.62 21.62 21.644 21.644 0 0 0 -21.62-21.62z"/><path d="m224 302.78h14a9.011 9.011 0 0 1 9 9v17.4h63.357a46.869 46.869 0 0 1 90.025 0h2.476a46.869 46.869 0 0 1 90.025 0h2.809v-47.1h-271.692z"/></svg>