<svg id="Layer_1_1_" enable-background="new 0 0 64 64" height="512" viewBox="0 0 64 64" width="512" xmlns="http://www.w3.org/2000/svg"><path d="m60 35h-5v4l-5-5-12 12v16h9v-13h6v13h9v-16l-2-2z"/><path d="m6 62h4v-53h-4c-2.20917 0-4-1.79089-4-4v53c0 2.20911 1.79083 4 4 4z"/><path d="m6 7h6v46h24v-7.82861l14-14 3 3v-1.17139h7v-26-1-3h-54c-1.10455 0-2 .89539-2 2 0 1.10455.89545 2 2 2zm15 43h-2v-2h2zm4 0h-2v-2h2zm30-44v21h-13v-3h4v-1c0-2.41455-1.7207-4.43506-4-4.89941v-12.10059zm-38 14h8v-2h-8v-12h12v12h-1v2h3v-14h9v14h1c1.30371 0 2.41602.83594 2.8291 2h-3.8291v5h-6v15h-7v-4c-2.21094 0-4 1.78906-4 4h-6zm-2 28h2v2h-2z"/></svg>