<svg id="Layer_1" enable-background="new 0 0 256 256" height="512" viewBox="0 0 256 256" width="512" xmlns="http://www.w3.org/2000/svg"><g><g><g><g><path d="m128 138.331-93.338 28.669 93.338 28.669-30-28.669z" fill="#a4d4a0"/></g><g><path d="m128 138.331 30 28.669-30 28.669 93.338-28.669z" fill="#419b46"/></g><g><path d="m128 138.331-30 28.669 30 28.669 30-28.669z" fill="#65bc49"/></g></g><g><g><path d="m128 198.669c-.297 0-.594-.044-.881-.132l-93.338-28.669c-1.26-.387-2.119-1.55-2.119-2.868s.859-2.481 2.119-2.868l93.338-28.669c.574-.177 1.188-.177 1.762 0l93.338 28.669c1.26.387 2.119 1.55 2.119 2.868s-.859 2.481-2.119 2.868l-93.338 28.669c-.287.088-.584.132-.881.132zm-83.12-31.669 83.12 25.531 83.12-25.531-83.12-25.531z" fill="#1c2d6b"/></g></g><g><g><path d="m34.662 167v11.986h.043l-.043.014 93.338 28.669-41.237-24.666z" fill="#a4d4a0"/></g><g><path d="m221.338 167-52.101 16.003-41.237 24.666 93.338-28.669-.043-.014h.043z" fill="#419b46"/></g><g><path d="m128 195.669-41.237-12.666 41.237 24.666 41.237-24.666z" fill="#65bc49"/></g></g><g><g><g><path d="m128 210.669c-.297 0-.594-.044-.881-.132l-93.338-28.669c-1.26-.387-2.119-1.55-2.119-2.868 0-.002 0-.004 0-.006s0-.004 0-.007v-11.987c0-.952.451-1.847 1.217-2.413.765-.566 1.752-.735 2.664-.455l92.457 28.399 92.457-28.399c.91-.28 1.898-.111 2.664.455.766.565 1.217 1.461 1.217 2.413v11.987c0 .749-.274 1.434-.729 1.959-.356.424-.832.75-1.391.921l-93.338 28.669c-.286.089-.583.133-.88.133zm-90.338-33.886 90.338 27.748 90.338-27.748v-5.724l-89.457 27.478c-.574.177-1.188.177-1.762 0l-89.457-27.478z" fill="#1c2d6b"/></g></g></g></g><g><g><g><path d="m128 91.335-93.338 28.669 93.338 28.669-30-28.669z" fill="#89aadb"/></g><g><path d="m128 91.335 30 28.669-30 28.669 93.338-28.669z" fill="#4b67b0"/></g><g><path d="m128 91.335-30 28.669 30 28.669 30-28.669z" fill="#6287c5"/></g></g><g><g><path d="m128 151.673c-.297 0-.594-.044-.881-.132l-93.338-28.669c-1.26-.387-2.119-1.55-2.119-2.868s.859-2.481 2.119-2.868l93.338-28.669c.574-.177 1.188-.177 1.762 0l93.338 28.669c1.26.387 2.119 1.55 2.119 2.868s-.859 2.481-2.119 2.868l-93.338 28.669c-.287.088-.584.132-.881.132zm-83.12-31.669 83.12 25.531 83.12-25.531-83.12-25.531z" fill="#1c2d6b"/></g></g><g><g><path d="m34.662 120.004v11.987h.043l-.043.013 93.338 28.669-41.237-24.666z" fill="#89aadb"/></g><g><path d="m221.338 120.004-52.101 16.003-41.237 24.666 93.338-28.669-.043-.013h.043z" fill="#4b67b0"/></g><g><path d="m128 148.673-41.237-12.666 41.237 24.666 41.237-24.666z" fill="#6287c5"/></g></g><g><g><g><path d="m128 163.673c-.297 0-.594-.044-.881-.132l-93.338-28.669c-1.26-.387-2.119-1.55-2.119-2.868 0-.002 0-.004 0-.006s0-.004 0-.007v-11.987c0-.952.451-1.847 1.217-2.413.765-.566 1.752-.735 2.664-.455l92.457 28.399 92.457-28.398c.91-.28 1.898-.111 2.664.455.766.565 1.217 1.461 1.217 2.413v11.987c0 .749-.274 1.434-.729 1.96-.356.424-.832.75-1.391.921l-93.338 28.669c-.286.087-.583.131-.88.131zm-90.338-33.886 90.338 27.748 90.338-27.748v-5.724l-89.457 27.477c-.574.177-1.188.177-1.762 0l-89.457-27.477z" fill="#1c2d6b"/></g></g></g></g><g><g><g><path d="m128 48.331-93.338 28.669 93.338 28.669-30-28.669z" fill="#ede49d"/></g><g><path d="m128 48.331 30 28.669-30 28.669 93.338-28.669z" fill="#d3ba2a"/></g><g><path d="m128 48.331-30 28.669 30 28.669 30-28.669z" fill="#eee045"/></g></g><g><g><path d="m128 108.669c-.297 0-.594-.044-.881-.132l-93.338-28.669c-1.26-.387-2.119-1.55-2.119-2.868s.859-2.481 2.119-2.868l93.338-28.669c.574-.177 1.188-.177 1.762 0l93.338 28.669c1.26.387 2.119 1.55 2.119 2.868s-.859 2.481-2.119 2.868l-93.338 28.669c-.287.088-.584.132-.881.132zm-83.12-31.669 83.12 25.531 83.12-25.531-83.12-25.531z" fill="#1c2d6b"/></g></g><g><g><path d="m34.662 77v11.987h.043l-.043.013 93.338 28.669-41.237-24.666z" fill="#ef7f72"/></g><g><path d="m221.338 77-52.101 16.003-41.237 24.666 93.338-28.669-.043-.013h.043z" fill="#e8383b"/></g><g><path d="m128 105.669-41.237-12.666 41.237 24.666 41.237-24.666z" fill="#e95947"/></g></g><g><g><g><path d="m128 120.669c-.297 0-.594-.044-.881-.132l-93.338-28.669c-1.254-.385-2.112-1.541-2.119-2.853 0-.008 0-.016 0-.023 0-.002 0-.004 0-.005v-11.987c0-.952.451-1.847 1.217-2.413.765-.566 1.752-.736 2.664-.455l92.457 28.399 92.457-28.398c.91-.281 1.898-.111 2.664.455.766.565 1.217 1.461 1.217 2.413v11.986c0 .744-.271 1.425-.719 1.949-.357.43-.837.76-1.4.933l-93.338 28.669c-.287.087-.584.131-.881.131zm-90.338-33.885 90.338 27.747 90.338-27.748v-5.723l-89.457 27.477c-.574.177-1.188.177-1.762 0l-89.457-27.477z" fill="#1c2d6b"/></g></g></g><g><g><path d="m34.661 80.001c-1.283 0-2.471-.83-2.867-2.12-.486-1.584.403-3.262 1.987-3.749l93.338-28.669c1.581-.487 3.263.403 3.749 1.987s-.403 3.262-1.987 3.749l-93.338 28.669c-.293.09-.59.133-.882.133z" fill="#1c2d6b"/></g></g><g><g><path d="m127.999 62.555c-1.283 0-2.471-.83-2.867-2.12-.486-1.584.403-3.262 1.987-3.749l18.27-5.611c1.582-.486 3.263.402 3.749 1.987.486 1.584-.403 3.262-1.987 3.749l-18.27 5.611c-.293.09-.59.133-.882.133z" fill="#1c2d6b"/></g></g><g><g><path d="m79.999 77.299c-1.283 0-2.471-.83-2.867-2.12-.486-1.584.403-3.262 1.987-3.749l24-7.372c1.582-.488 3.263.403 3.749 1.987s-.403 3.262-1.987 3.749l-24 7.372c-.293.09-.59.133-.882.133z" fill="#1c2d6b"/></g></g><g><g><path d="m115.999 77.464c-1.283 0-2.471-.83-2.867-2.12-.486-1.584.403-3.262 1.987-3.749l18-5.529c1.582-.487 3.263.403 3.749 1.987s-.403 3.262-1.987 3.749l-18 5.529c-.293.09-.59.133-.882.133z" fill="#1c2d6b"/></g></g><g><g><path d="m71.087 91.259c-1.283 0-2.471-.83-2.867-2.12-.486-1.584.403-3.262 1.987-3.749l28.449-8.738c1.58-.485 3.263.402 3.749 1.987.486 1.584-.403 3.262-1.987 3.749l-28.449 8.738c-.293.09-.59.133-.882.133z" fill="#1c2d6b"/></g></g><g><g><path d="m157.999 75.787c-1.283 0-2.471-.83-2.867-2.12-.486-1.584.403-3.262 1.987-3.749l24.749-7.602c1.582-.488 3.263.403 3.749 1.987s-.403 3.262-1.987 3.749l-24.749 7.602c-.293.09-.59.133-.882.133z" fill="#1c2d6b"/></g></g><g><g><path d="m146.006 90.694c-1.283 0-2.471-.83-2.867-2.12-.486-1.584.403-3.262 1.987-3.749l19.611-6.023c1.581-.485 3.263.402 3.749 1.987.486 1.584-.403 3.262-1.987 3.749l-19.611 6.023c-.293.09-.59.133-.882.133z" fill="#1c2d6b"/></g></g><g><g><path d="m107.718 102.454c-1.283 0-2.471-.83-2.867-2.12-.486-1.584.403-3.262 1.987-3.749l26.431-8.118c1.582-.486 3.263.403 3.749 1.987s-.403 3.262-1.987 3.749l-26.431 8.118c-.293.09-.59.133-.882.133z" fill="#1c2d6b"/></g></g></g></g></svg>