<svg id="Layer_5" enable-background="new 0 0 64 64" height="512" viewBox="0 0 64 64" width="512" xmlns="http://www.w3.org/2000/svg"><g><path d="m21 3.292c-.07.039-.148.059-.212.107l-6.808 5.016.732 1.708 4.484.896-.393 1.961-5.516-1.104-.962-2.244-7.283 5.368h15.958z"/><path d="m3 17h18v2h-18z"/><path d="m33.051 17h-10.051v2h10.302c-.132-.651-.206-1.322-.251-2z"/><path d="m33.802 11.201-4.647-3.424-1.578 1.893 2.87 1.435-.895 1.789-2.552-1.276v1.382h-2v-3.362l2.542-3.05-4.33-3.19c-.064-.048-.143-.068-.212-.107v11.709h10.051c.087-1.321.342-2.594.751-3.799z"/><path d="m21 33.875v-12.875h-16v16.836c.611-.661 1.28-1.265 2-1.808v-13.028h12v10.302c.687.14 1.35.342 2 .573z"/><path d="m48 29c7.168 0 13-5.832 13-13s-5.832-13-13-13-13 5.832-13 13 5.832 13 13 13zm-8-17 2 2c1.657 0 3-1.343 3-3l-2-2 1-1c2.761 0 5 2.239 5 5 0 .643-.132 1.254-.353 1.819l5.767 5.767c.378.378.586.88.586 1.414s-.208 1.036-.586 1.414-.88.586-1.414.586-1.036-.208-1.414-.586l-5.767-5.767c-.565.221-1.176.353-1.819.353-2.761 0-5-2.239-5-5z"/><path d="m48 35c-7.168 0-13 5.832-13 13s5.832 13 13 13 13-5.832 13-13-5.832-13-13-13zm5.143 15.642-.143.358-3.293-3.293-3.781 3.781c.044.166.074.336.074.512 0 .534-.208 1.036-.586 1.414l-2 2c-.378.378-.88.586-1.414.586s-1.036-.208-1.414-.586-.586-.88-.586-1.414.208-1.036.586-1.414l2-2c.378-.378.88-.586 1.414-.586.176 0 .346.03.512.074l3.781-3.781-3.293-3.293.358-.143c3.066-1.227 6.339-1.857 9.642-1.857 0 3.303-.63 6.576-1.857 9.642z"/><path d="m16 35c-7.168 0-13 5.832-13 13s5.832 13 13 13 13-5.832 13-13-5.832-13-13-13zm6 9h-8c-.738 0-1.376-.405-1.723-1h-3.277v2.219l8 2v5.059c.595.346 1 .984 1 1.723v2c0 1.105-.895 2-2 2s-2-.895-2-2v-2c0-.738.405-1.376 1-1.723v-3.496l-8-2v-5.782h5.277c.346-.595.984-1 1.723-1h8c1.105 0 2 .895 2 2s-.895 2-2 2z"/><path d="m16 33c.338 0 .668.029 1 .051v-8.051h-8v9.744c2.092-1.109 4.472-1.744 7-1.744z"/><path d="m39 36.028v-8.057c-2.331-1.756-4.13-4.171-5.125-6.971h-10.875v13.744c3.3 1.75 5.861 4.696 7.125 8.256h3.75c.995-2.8 2.794-5.215 5.125-6.972zm-3-2.028h-10v-8h10z"/></g></svg>