<svg id="_x31__x2C_5" enable-background="new 0 0 24 24" height="512" viewBox="0 0 24 24" width="512" xmlns="http://www.w3.org/2000/svg"><path d="m15.6.95h-13.2c-.828 0-1.5.672-1.5 1.5v5.7h16.2v-5.7c0-.828-.672-1.5-1.5-1.5z" fill="#2196f3"/><path d="m2.4 23.25h13.2c.828 0 1.5-.672 1.5-1.5v-6.15h-16.2v6.15c0 .828.672 1.5 1.5 1.5z" fill="#2196f3"/><path d="m17.1 8.15h-16.2v7.6h16.2z" fill="#64b5f6"/><path d="m18 24c-3.309 0-6-2.691-6-6 0-.414.336-.75.75-.75s.75.336.75.75c0 2.481 2.019 4.5 4.5 4.5s4.5-2.019 4.5-4.5-2.019-4.5-4.5-4.5c-1.489 0-2.778.684-3.632 1.925-.234.341-.701.428-1.043.193s-.428-.702-.193-1.043c1.125-1.637 2.899-2.575 4.868-2.575 3.309 0 6 2.691 6 6s-2.691 6-6 6z"/><path d="m15.945 15.75h-2.195c-.414 0-.75-.336-.75-.75v-2.25c0-.414.336-.75.75-.75s.75.336.75.75v1.5h1.445c.414 0 .75.336.75.75s-.336.75-.75.75z"/><path d="m11.25 24h-8.5c-1.517 0-2.75-1.233-2.75-2.75v-18.5c0-1.517 1.233-2.75 2.75-2.75h12.5c1.517 0 2.75 1.233 2.75 2.75v6.5c0 .414-.336.75-.75.75s-.75-.336-.75-.75v-6.5c0-.689-.561-1.25-1.25-1.25h-12.5c-.689 0-1.25.561-1.25 1.25v18.5c0 .689.561 1.25 1.25 1.25h8.5c.414 0 .75.336.75.75s-.336.75-.75.75z"/><path d="m17.25 9h-16.5c-.414 0-.75-.336-.75-.75s.336-.75.75-.75h16.5c.414 0 .75.336.75.75s-.336.75-.75.75z"/><path d="m10.25 16.5h-9c-.414 0-.75-.336-.75-.75s.336-.75.75-.75h9c.414 0 .75.336.75.75s-.336.75-.75.75z"/><circle cx="13" cy="5" r="1"/><circle cx="9" cy="5" r="1"/><circle cx="5" cy="5" r="1"/></svg>