<svg id="Layer_5" enable-background="new 0 0 64 64" height="512" viewBox="0 0 64 64" width="512" xmlns="http://www.w3.org/2000/svg"><g><g><g><path d="m38 56v6h-6v-6h3z" fill="#cf9e76"/></g><g><path d="m22 56h4v6h-6v-6z" fill="#cf9e76"/></g><g><path d="m10 56h4v6h-6v-6z" fill="#cf9e76"/></g><g><path d="m10 50v6h-2-6v-6h6z" fill="#cf9e76"/></g><g><path d="m14 44v6h-4-2v-6z" fill="#cf9e76"/></g><g><path d="m44 56v6h-6v-6h4z" fill="#d3a06c"/></g><g><path d="m32 56v6h-6v-6h3z" fill="#d3a06c"/></g><g><path d="m20 56v6h-6v-6h4z" fill="#d3a06c"/></g><g><path d="m2 56h6v6h-6z" fill="#d3a06c"/></g><g><path d="m18 50v6h-4-4v-6h4 2z" fill="#d3a06c"/></g><g><path d="m2 44h6v6h-6z" fill="#d3a06c"/></g><g><path d="m28.58 46 .42 10h-3-4l-.43-10z" fill="#b4dd7f"/></g><g><path d="m42.43 46-.43 10h-4-3l.42-10z" fill="#b4dd7f"/></g><g><path d="m35.64 40.64.11-2.64h7.03l-.05 1.1-.12 2.9h-7.03z" fill="#b4dd7f"/></g><g><path d="m28.36 40.64.06 1.36h-7.02l-.08-2.01-.09-1.99h7.02z" fill="#b4dd7f"/></g><g><path d="m28.42 42 .16 4h-7.01l-.17-4z" fill="#a0d468"/></g><g><path d="m42.61 42-.18 4h-7.01l.16-4z" fill="#a0d468"/></g><g><path d="m43 33-.22 5h-7.03l.25-6z" fill="#a0d468"/></g><g><path d="m28 32 .25 6h-7.02l-.23-5.5z" fill="#a0d468"/></g><g><path d="m35.58 42-.16 4-.42 10h-3-3l-.42-10-.16-4-.06-1.36 3.64-3.64 3.64 3.64z" fill="#fcd770"/></g><g><path d="m35.75 38-.11 2.64-3.64-3.64 4-5z" fill="#ffc729"/></g><g><path d="m32 37-3.64 3.64-.11-2.64-.25-6z" fill="#ffc729"/></g><g><path d="m48 54h12 2v2l-2.45 4.89c-.34.68-1.03 1.11-1.79 1.11h-7.52c-.76 0-1.45-.43-1.79-1.11l-2.45-4.89v-2z" fill="#ccd1d9"/></g><g><path d="m12 14.17v4.83c0 1.1-.9 2-2 2s-2-.9-2-2v-7h4z" fill="#aab2bd"/></g><g><path d="m14 8.47v1.53c0 1.1-.9 2-2 2h-4c-1.1 0-2-.9-2-2v-1.53c0-1.37.39-2.68 1.08-3.8.7-1.12 1.7-2.05 2.92-2.67 2.45 1.23 4 3.73 4 6.47z" fill="#ccd1d9"/></g><g><path d="m57 47v1c0 1.1-.9 2-2 2h-2c-1.1 0-2-.9-2-2v-1c0-.43.09-.83.25-1.2.46-1.06 1.52-1.8 2.75-1.8.83 0 1.58.34 2.12.88.26.26.48.57.63.92.16.37.25.77.25 1.2z" fill="#f0d0b4"/></g><g><path d="m42.78 38 .22-5 2.12.3c6.42.92 11.28 6.14 11.83 12.5h-.2c-.15-.35-.37-.66-.63-.92-.54-.54-1.29-.88-2.12-.88-1.23 0-2.29.74-2.75 1.8h-.25c-.03.02-.06.04-.09.06-.5-3.47-3.29-6.23-6.87-6.63l-1.04-.12-.27-.01z" fill="#f0d0b4"/></g><g><path d="m42.12 19.88c.54.54.88 1.29.88 2.12 0 1.66-1.34 3-3 3h-1.13c.09-.32.13-.65.13-1v-5h1c.83 0 1.58.34 2.12.88z" fill="#f0d0b4"/></g><g><path d="m35 28 1 4-4 5-4-5 1-4z" fill="#f0d0b4"/></g><g><path d="m25.13 25h-1.13c-.83 0-1.58-.34-2.12-.88s-.88-1.29-.88-2.12c0-1.66 1.34-3 3-3h1v5c0 .35.04.68.13 1z" fill="#f0d0b4"/></g><g><path d="m25.13 25c-.09-.32-.13-.65-.13-1v-5-3h14v3 5c0 .35-.04.68-.13 1-.44 1.73-2.01 3-3.87 3h-6c-1.86 0-3.43-1.27-3.87-3z" fill="#f0d0b4"/></g><g><path d="m21.23 38 .09 1.99-.32.01h-8c-2.76 0-5-2.24-5-5v-16c0 1.1.9 2 2 2s2-.9 2-2v-4.83c1.17.41 2 1.52 2 2.83l.39.2c.99.49 1.61 1.5 1.61 2.6 0 .77-.31 1.51-.85 2.05l-1.15 1.15v10l7-.5z" fill="#f0d0b4"/></g><g><path d="m43 16v6c0-.83-.34-1.58-.88-2.12s-1.29-.88-2.12-.88h-1v-3z" fill="#656d78"/></g><g><path d="m21 16h4v3h-1c-1.66 0-3 1.34-3 3z" fill="#656d78"/></g><g><path d="m42.96 12h-8.96v-9.81-.01c2.08.38 3.95 1.35 5.44 2.72 1.96 1.8 3.26 4.3 3.52 7.1z" fill="#ff826e"/></g><g><path d="m30 2.19v9.81h-8.96c.45-4.94 4.16-8.94 8.96-9.82z" fill="#ff826e"/></g><g><path d="m34 2.19v9.81h-4v-9.81-.01c.65-.12 1.32-.18 2-.18s1.35.06 2 .18z" fill="#fc6e51"/></g><g><path d="m21.04 12h8.96 4 8.96 1.04c.55 0 1 .45 1 1v2c0 .55-.45 1-1 1h-1-4-14-4-1c-.55 0-1-.45-1-1v-2c0-.55.45-1 1-1z" fill="#fc6e51"/></g></g><path d="m61 53v-2c0-2.34-1.193-4.52-3.126-5.813-.816-6.538-5.957-11.923-12.612-12.874l-8.455-1.208-.57-2.279c1.497-.385 2.727-1.434 3.339-2.826h.424c2.206 0 4-1.794 4-4v-5c1.103 0 2-.897 2-2v-2c0-1.103-.897-2-2-2h-.174c-.957-5.76-5.883-10-11.826-10s-10.869 4.24-11.826 10h-.174c-1.103 0-2 .897-2 2v2c0 1.103.897 2 2 2v5c0 2.206 1.794 4 4 4h.424c.611 1.392 1.842 2.441 3.339 2.826l-.557 2.228-12.206.872v-8.512l.856-.856c.738-.738 1.144-1.718 1.144-2.762 0-1.449-.783-2.755-2.052-3.438-.193-1.182-.915-2.213-1.948-2.813v-.729c1.161-.414 2-1.514 2-2.816v-1.528c0-3.14-1.745-5.963-4.553-7.367l-.447-.223-.447.223c-2.808 1.404-4.553 4.227-4.553 7.367v1.528c0 1.302.839 2.402 2 2.816v6.184 16c0 3.309 2.691 6 6 6h7.361l.596 14h-.957-1v-6h-3-1v-6h-14v20h44v-6.764l2.553 5.106c.511 1.023 1.54 1.658 2.683 1.658h7.528c1.143 0 2.171-.635 2.683-1.658l2.553-5.106v-3.236zm-2-2v2h-10v-2c0-1.093.364-2.139 1.001-2.992.004 1.651 1.348 2.992 2.999 2.992h2c1.652 0 2.995-1.341 2.999-2.992.637.853 1.001 1.899 1.001 2.992zm-7-4c0-1.103.897-2 2-2s2 .897 2 2v1c0 .551-.449 1-1 1h-2c-.551 0-1-.449-1-1zm3.431-3.724c-.446-.172-.925-.276-1.431-.276-.973 0-1.855.363-2.549.943-1.126-3.053-3.891-5.332-7.298-5.711l-.378-.042.176-4.045 1.028.147c5.007.716 9.024 4.334 10.452 8.984zm-19.389 11.724.333-8h5.015l-.348 8zm-27.042-4v4h-6v-4zm4 6v4h-4v-4zm2 0h2 2v4h-4zm6 0h4v4h-4zm6 0h4v4h-4zm-4.552-14h5.01l.083 2h-5.008zm11.771-14 .691 2.762-2.91 3.637-2.91-3.637.691-2.762zm7.258 16h-5.018l.083-2h5.022zm-6.741-6.678-1.396-1.396 1.534-1.918zm1.89 2.678.083-2h5.029l-.087 2zm5.199-4h-5.033l.161-3.854 5.009.715zm-12.699-1.992 1.534 1.918-1.396 1.396zm-1.918 1.992h-5.015l-.152-3.572 5.004-.357zm-4.931 2h5.013l.083 2h-5.012zm7.1 2.037 2.623-2.623 2.623 2.623-.582 13.963h-4.082zm3.623 15.963h4v4h-4zm7-33v-4c1.103 0 2 .897 2 2s-.897 2-2 2zm2-5.444c-.591-.344-1.268-.556-2-.556v-1h2zm-.204-7.556h-6.796v-7.542c3.435 1.065 6.07 3.914 6.796 7.542zm-8.796-7.95v7.95h-2v-7.95c.329-.032.662-.05 1-.05s.671.018 1 .05zm-4 .408v7.542h-6.796c.726-3.628 3.361-6.477 6.796-7.542zm-9.001 9.542h.001 24v2h-24zm4.001 4v1c-.732 0-1.409.212-2 .556v-1.556zm-2 5c0-1.103.897-2 2-2v4c-1.103 0-2-.897-2-2zm4 2v-7h12v7c0 1.654-1.346 3-3 3h-6c-1.654 0-3-1.346-3-3zm-19-15.528c0-2.206 1.137-4.206 3-5.332 1.863 1.126 3 3.125 3 5.332v1.528c0 .551-.449 1-1 1h-4c-.551 0-1-.449-1-1zm2 4.528h2v6c0 .551-.449 1-1 1s-1-.449-1-1zm4 26c-2.206 0-4-1.794-4-4v-13.184c.314.112.648.184 1 .184 1.654 0 3-1.346 3-3v-1.382l.946.473c.65.325 1.054.978 1.054 1.705 0 .501-.204.993-.558 1.348l-1.442 1.442v10l-1.707 1.707 1.414 1.414 1.736-1.736 5.602-.4.231 5.429zm9.618 8h5.006l.333 8h-4.999zm-6.618 4h1v4h-6v-4h2zm-3-2h-4v-4h4zm-6-4v4h-4v-4zm-4 12h4v4h-4zm40 4h-4v-4h4zm2-6h-1.956l.644-14.806.244.027c2.913.324 5.215 2.444 5.872 5.183-1.745 1.312-2.804 3.385-2.804 5.596v2h-2zm16 .764-2.342 4.683c-.17.341-.513.553-.894.553h-7.528c-.381 0-.724-.212-.894-.553l-2.342-4.683v-.764h14z"/></g></svg>